<?xml version="1.0" standalone="no"?>
<!DOCTYPE svg PUBLIC "-//W3C//DTD SVG 20010904//EN"
 "http://www.w3.org/TR/2001/REC-SVG-20010904/DTD/svg10.dtd">
<svg version="1.0" xmlns="http://www.w3.org/2000/svg"
 width="500.000000pt" height="500.000000pt" viewBox="0 0 500.000000 500.000000"
 preserveAspectRatio="xMidYMid meet">
<metadata>
Created by potrace 1.11, written by Peter Selinger 2001-2013
</metadata>
<g transform="translate(0.000000,500.000000) scale(0.100000,-0.100000)"
fill="#000000" stroke="none">
<path d="M2488 4645 c-2 -1 -55 -5 -118 -9 -63 -3 -128 -8 -145 -11 -16 -3
-59 -10 -95 -16 -116 -20 -315 -73 -375 -99 -11 -5 -45 -19 -75 -30 -153 -59
-387 -198 -535 -318 -69 -57 -213 -197 -270 -263 -266 -308 -440 -689 -501
-1099 -25 -168 -25 -472 2 -625 28 -168 57 -281 106 -415 192 -527 591 -963
1103 -1205 145 -69 330 -132 470 -160 49 -10 147 -26 196 -33 114 -15 559 -5
589 13 3 2 26 6 50 10 187 26 478 134 695 257 169 97 384 274 530 439 239 268
420 638 490 994 32 169 42 277 40 455 -2 141 -4 170 -26 315 -36 239 -138 521
-266 733 -34 58 -63 109 -63 114 0 4 -4 8 -8 8 -4 0 -15 13 -25 29 -32 55
-152 197 -242 286 -274 274 -611 465 -984 560 -101 25 -134 32 -191 40 -19 3
-46 7 -59 10 -14 2 -72 7 -130 11 -59 3 -118 7 -133 9 -15 1 -29 1 -30 0z"/>
</g>
</svg>
